<svg id="svg" version="1.1" xmlns="http://www.w3.org/2000/svg" xmlns:xlink="http://www.w3.org/1999/xlink" width="400" height="350.9090909090909" viewBox="0, 0, 400,350.9090909090909"><g id="svgg"><path id="path0" d="M80.948 2.534 C 70.264 4.329,56.258 8.306,55.136 9.864 C 55.040 9.999,53.143 10.980,50.922 12.045 C 48.701 13.110,45.665 14.779,44.176 15.754 C 42.687 16.729,41.027 17.755,40.488 18.034 C 39.949 18.314,39.105 18.914,38.611 19.368 C 37.581 20.316,33.428 23.745,30.794 25.822 C 29.807 26.600,27.436 29.049,25.525 31.265 C 23.614 33.481,21.498 35.926,20.823 36.699 C 18.751 39.071,14.367 45.976,12.351 50.044 C 11.298 52.169,10.309 53.990,10.152 54.092 C 9.200 54.714,5.370 65.831,3.771 72.613 L 2.634 77.436 2.646 172.608 C 2.659 275.389,2.554 269.627,4.582 278.765 C 7.099 290.102,14.647 306.335,20.621 313.257 C 21.037 313.740,21.902 314.785,22.542 315.579 C 27.648 321.914,29.517 323.782,35.963 328.995 C 36.754 329.635,37.794 330.504,38.275 330.926 C 40.137 332.563,47.761 337.272,51.273 338.955 C 53.301 339.926,55.040 340.845,55.136 340.997 C 55.799 342.039,67.710 345.941,74.426 347.317 L 79.594 348.376 200.638 348.376 L 321.681 348.376 326.290 347.477 C 333.150 346.140,345.582 342.107,346.271 340.997 C 346.368 340.839,347.661 340.157,349.144 339.482 C 350.626 338.806,352.759 337.709,353.883 337.044 C 358.841 334.109,361.973 332.075,362.950 331.155 C 364.595 329.607,368.358 326.506,369.616 325.662 C 370.717 324.923,372.254 323.287,378.139 316.594 C 381.361 312.929,385.743 306.380,388.010 301.844 C 388.878 300.105,389.712 298.599,389.863 298.496 C 390.938 297.763,395.195 285.924,396.638 279.657 L 397.542 275.731 397.542 194.920 C 397.542 116.651,397.233 83.788,396.447 78.314 C 394.154 62.352,386.233 46.222,373.596 31.777 C 367.110 24.364,356.422 16.460,346.971 12.088 C 344.943 11.150,342.888 10.113,342.406 9.784 C 339.437 7.760,324.357 3.911,316.594 3.195 C 314.218 2.976,285.071 2.766,240.913 2.648 C 201.414 2.543,149.737 2.395,126.076 2.318 C 98.137 2.228,82.317 2.304,80.948 2.534 M311.501 18.376 C 348.927 25.970,374.605 51.410,381.050 87.282 C 381.734 91.086,381.745 92.716,381.648 176.483 L 381.550 261.809 380.594 266.080 C 373.308 298.641,349.652 322.945,317.647 330.752 C 311.230 332.317,315.213 332.270,200.000 332.155 L 90.079 332.046 85.338 331.051 C 49.149 323.461,22.966 294.709,18.612 257.779 C 18.389 255.881,18.262 226.007,18.262 175.251 L 18.262 95.698 19.310 89.637 C 26.076 50.500,53.524 23.297,91.484 18.106 C 97.468 17.287,307.407 17.545,311.501 18.376 M55.838 118.354 L 55.838 178.763 67.867 178.670 L 79.895 178.578 79.999 142.581 C 80.094 109.974,79.855 93.711,79.129 83.485 C 78.741 78.018,79.660 79.675,81.194 87.210 C 82.718 94.689,82.766 94.844,89.658 114.311 C 108.660 167.979,112.379 178.512,112.379 178.650 C 112.379 178.707,117.336 178.753,123.395 178.753 L 134.411 178.753 135.677 175.154 C 139.026 165.628,145.326 147.326,154.928 119.227 C 157.239 112.467,160.069 104.271,161.219 101.014 C 163.439 94.725,164.525 90.763,165.783 84.372 C 166.576 80.341,167.720 78.525,167.331 81.914 C 166.679 87.587,166.462 101.497,166.462 137.555 L 166.462 178.762 179.719 178.670 L 192.976 178.578 193.065 118.262 L 193.154 57.946 173.750 57.949 L 154.346 57.952 150.773 68.397 C 148.808 74.141,144.331 87.138,140.824 97.278 C 137.317 107.419,133.272 119.113,131.836 123.266 C 129.217 130.840,127.211 137.488,125.716 143.547 C 125.095 146.067,124.320 147.794,124.320 146.659 C 124.320 146.583,124.072 145.201,123.770 143.586 C 122.439 136.484,122.242 135.878,104.901 85.514 C 101.908 76.822,98.534 67.063,97.403 63.828 L 95.348 57.946 75.593 57.946 L 55.838 57.946 55.838 118.354 M208.604 227.392 L 208.604 287.621 220.720 287.621 L 232.836 287.621 232.828 252.063 C 232.820 219.806,232.612 206.504,231.915 193.895 C 231.556 187.397,232.289 188.229,233.909 196.160 C 235.696 204.906,236.775 208.218,247.809 238.806 C 248.889 241.800,251.717 249.781,254.092 256.541 C 256.468 263.301,259.903 273.020,261.725 278.139 L 265.037 287.445 276.198 287.445 L 287.359 287.445 290.869 277.261 C 292.799 271.659,296.187 261.782,298.397 255.312 C 300.608 248.841,303.500 240.465,304.824 236.699 C 313.980 210.655,317.203 200.454,318.721 192.713 C 319.511 188.681,320.210 188.570,319.822 192.537 C 319.666 194.131,319.458 216.176,319.360 241.528 L 319.181 287.621 332.549 287.621 L 345.917 287.621 345.917 227.392 L 345.917 167.164 326.510 167.164 L 307.102 167.164 304.233 175.505 C 302.656 180.092,298.572 191.905,295.159 201.756 C 284.453 232.656,280.429 244.777,279.035 250.318 C 277.957 254.602,277.085 257.098,277.085 255.898 C 277.085 255.219,275.821 249.205,275.079 246.356 C 274.148 242.777,265.850 218.368,250.697 174.630 L 248.112 167.170 228.358 167.167 L 208.604 167.164 208.604 227.392 " stroke="none" fill="#fbfbfb" fill-rule="evenodd"></path><path id="path1" d="M95.439 17.808 C 95.876 17.892,96.508 17.888,96.843 17.801 C 97.179 17.713,96.822 17.644,96.049 17.648 C 95.277 17.652,95.002 17.724,95.439 17.808 M291.923 17.801 C 292.261 17.890,292.814 17.890,293.152 17.801 C 293.490 17.713,293.213 17.641,292.537 17.641 C 291.861 17.641,291.585 17.713,291.923 17.801 M304.043 17.808 C 304.480 17.892,305.112 17.888,305.447 17.801 C 305.783 17.713,305.426 17.644,304.653 17.648 C 303.881 17.652,303.606 17.724,304.043 17.808 M332.572 24.750 C 332.572 24.846,333.679 25.482,335.031 26.163 C 336.383 26.844,337.489 27.322,337.489 27.226 C 337.489 27.129,336.383 26.493,335.031 25.812 C 333.679 25.131,332.572 24.653,332.572 24.750 M46.861 38.367 L 45.830 39.508 46.971 38.477 C 47.599 37.910,48.112 37.396,48.112 37.336 C 48.112 37.064,47.823 37.303,46.861 38.367 M42.826 42.054 L 41.615 43.371 42.932 42.161 C 43.657 41.496,44.249 40.903,44.249 40.844 C 44.249 40.576,43.952 40.829,42.826 42.054 M55.659 118.349 C 55.659 151.668,55.700 165.299,55.751 148.639 C 55.801 131.980,55.801 104.719,55.751 88.060 C 55.700 71.400,55.659 85.031,55.659 118.349 M372.256 62.160 C 372.651 62.932,373.052 63.565,373.149 63.565 C 373.245 63.565,373.002 62.932,372.608 62.160 C 372.213 61.387,371.812 60.755,371.715 60.755 C 371.619 60.755,371.862 61.387,372.256 62.160 M79.117 83.055 C 79.120 84.021,79.188 84.374,79.269 83.841 C 79.349 83.307,79.347 82.517,79.264 82.085 C 79.181 81.653,79.114 82.090,79.117 83.055 M166.918 85.338 C 166.918 86.400,166.984 86.835,167.065 86.304 C 167.145 85.773,167.145 84.903,167.065 84.372 C 166.984 83.841,166.918 84.276,166.918 85.338 M79.473 89.201 C 79.473 90.263,79.539 90.698,79.619 90.167 C 79.700 89.636,79.700 88.766,79.619 88.235 C 79.539 87.704,79.473 88.139,79.473 89.201 M166.574 91.659 C 166.574 92.915,166.638 93.428,166.716 92.801 C 166.794 92.173,166.794 91.146,166.716 90.518 C 166.638 89.890,166.574 90.404,166.574 91.659 M79.839 98.156 C 79.841 99.701,79.902 100.290,79.977 99.464 C 80.051 98.638,80.050 97.374,79.974 96.654 C 79.899 95.935,79.838 96.611,79.839 98.156 M166.280 138.894 C 166.280 160.913,166.322 169.973,166.374 159.026 C 166.425 148.080,166.425 130.064,166.374 118.991 C 166.322 107.918,166.280 116.874,166.280 138.894 M208.427 227.480 L 208.428 287.796 220.544 287.803 L 232.660 287.810 220.633 287.711 L 208.606 287.612 208.516 227.388 L 208.425 167.164 208.427 227.480 M231.888 193.152 C 231.888 194.214,231.953 194.649,232.034 194.118 C 232.114 193.586,232.114 192.717,232.034 192.186 C 231.953 191.655,231.888 192.090,231.888 193.152 M319.674 193.503 C 319.674 194.372,319.743 194.728,319.826 194.293 C 319.910 193.859,319.910 193.147,319.826 192.713 C 319.743 192.278,319.674 192.634,319.674 193.503 M232.246 199.824 C 232.246 201.080,232.310 201.594,232.387 200.966 C 232.465 200.338,232.465 199.311,232.387 198.683 C 232.310 198.055,232.246 198.569,232.246 199.824 M319.333 200.176 C 319.333 201.238,319.398 201.673,319.479 201.141 C 319.559 200.610,319.559 199.741,319.479 199.210 C 319.398 198.679,319.333 199.113,319.333 200.176 M232.615 209.658 C 232.615 211.686,232.673 212.515,232.744 211.501 C 232.814 210.487,232.814 208.828,232.744 207.814 C 232.673 206.800,232.615 207.629,232.615 209.658 M318.963 247.322 L 318.876 287.972 332.485 287.888 L 346.093 287.805 332.662 287.709 L 319.230 287.612 319.140 247.142 L 319.049 206.673 318.963 247.322 M18.343 254.960 C 18.343 255.637,18.415 255.913,18.504 255.575 C 18.592 255.237,18.592 254.684,18.504 254.346 C 18.415 254.008,18.343 254.284,18.343 254.960 M265.024 287.709 C 265.113 287.853,270.146 287.972,276.207 287.972 C 282.269 287.972,287.301 287.853,287.391 287.709 C 287.480 287.564,282.448 287.445,276.207 287.445 C 269.967 287.445,264.934 287.564,265.024 287.709 M371.730 289.377 C 371.430 289.956,371.264 290.430,371.360 290.430 C 371.457 290.430,371.781 289.956,372.081 289.377 C 372.380 288.797,372.547 288.323,372.450 288.323 C 372.353 288.323,372.029 288.797,371.730 289.377 M42.669 308.341 C 43.423 309.113,44.120 309.745,44.216 309.745 C 44.313 309.745,43.775 309.113,43.020 308.341 C 42.266 307.568,41.569 306.936,41.473 306.936 C 41.376 306.936,41.915 307.568,42.669 308.341 M334.680 324.495 C 333.231 325.249,332.168 325.873,332.318 325.883 C 332.691 325.906,337.489 323.475,337.489 323.262 C 337.489 323.024,337.605 322.974,334.680 324.495 " stroke="none" fill="#dba39a" fill-rule="evenodd"></path><path id="path2" d="M96.362 17.928 C 73.155 19.441,50.881 31.364,36.463 49.990 C 26.300 63.120,21.450 75.436,18.603 95.347 C 18.012 99.480,18.308 255.046,18.914 258.999 C 24.872 297.833,53.542 326.857,90.712 331.683 C 97.013 332.501,307.154 332.496,312.204 331.678 C 318.030 330.734,321.278 329.814,328.007 327.206 C 357.376 315.820,377.663 289.964,381.379 259.184 C 381.991 254.116,381.850 94.875,381.229 90.255 C 380.407 84.132,377.886 73.950,376.838 72.520 C 376.697 72.327,376.171 71.124,375.669 69.848 C 364.124 40.459,335.570 19.930,303.437 17.916 C 297.194 17.525,102.374 17.536,96.362 17.928 M95.421 57.875 C 95.655 58.024,97.845 63.987,100.289 71.127 C 102.732 78.267,106.991 90.667,109.753 98.683 C 112.515 106.699,116.287 117.645,118.134 123.009 C 121.247 132.048,123.591 140.375,124.167 144.451 C 124.503 146.819,124.714 146.362,126.412 139.596 C 127.237 136.313,128.851 130.939,130.000 127.656 C 131.149 124.372,133.962 116.234,136.252 109.570 C 150.887 66.981,153.798 58.656,154.273 58.033 C 154.626 57.571,191.765 57.354,192.948 57.808 C 193.451 58.001,193.503 63.665,193.503 118.387 L 193.503 178.753 179.781 178.753 L 166.060 178.753 166.256 133.187 C 166.364 108.126,166.527 86.277,166.618 84.636 L 166.784 81.651 165.389 87.621 C 164.004 93.551,161.487 101.262,151.002 131.694 C 148.240 139.710,144.180 151.563,141.980 158.033 C 139.780 164.504,137.258 171.813,136.375 174.276 L 134.771 178.753 123.474 178.753 L 112.178 178.753 110.666 174.627 C 109.834 172.357,107.424 165.522,105.309 159.438 C 103.195 153.354,100.922 146.953,100.258 145.215 C 99.594 143.477,97.006 136.207,94.507 129.061 C 92.007 121.914,89.300 114.249,88.490 112.028 C 84.369 100.721,82.542 94.741,81.145 87.989 C 79.434 79.722,79.200 79.242,79.508 84.636 C 80.194 96.622,80.408 110.414,80.415 142.845 L 80.421 178.753 67.954 178.753 L 55.487 178.753 55.487 118.408 C 55.487 85.218,55.593 57.957,55.721 57.829 C 56.050 57.499,94.902 57.545,95.421 57.875 M248.448 167.140 C 248.560 167.319,250.854 173.917,253.547 181.802 C 260.057 200.861,268.088 224.183,270.759 231.782 C 273.821 240.495,275.218 245.265,276.364 250.913 C 277.176 254.918,277.411 255.642,277.618 254.785 C 279.358 247.582,280.978 241.862,282.590 237.226 C 283.664 234.135,286.406 226.155,288.684 219.491 C 290.961 212.827,293.399 205.795,294.102 203.863 C 294.804 201.932,296.928 195.768,298.820 190.167 C 300.713 184.565,303.338 177.018,304.653 173.395 L 307.044 166.807 326.569 166.898 L 346.093 166.989 346.182 227.480 L 346.271 287.972 332.573 287.972 L 318.876 287.972 318.876 247.339 C 318.876 211.964,319.148 194.348,319.752 190.518 C 320.128 188.134,319.293 190.701,318.725 193.679 C 317.563 199.760,316.050 205.092,312.877 214.274 C 309.255 224.761,301.581 247.091,294.550 267.603 C 291.935 275.233,289.270 282.937,288.627 284.723 L 287.458 287.972 276.159 287.972 L 264.860 287.972 264.323 286.479 C 264.028 285.658,261.553 278.665,258.823 270.939 C 250.101 246.257,243.915 228.748,239.903 217.384 C 237.754 211.299,235.599 204.662,235.113 202.634 C 234.627 200.606,233.758 196.971,233.183 194.557 L 232.137 190.167 232.324 194.030 C 232.981 207.589,233.172 220.580,233.179 252.239 L 233.187 287.972 220.720 287.972 L 208.253 287.972 208.253 227.392 L 208.253 166.813 228.250 166.813 C 240.206 166.813,248.328 166.944,248.448 167.140 " stroke="none" fill="#c45c04" fill-rule="evenodd"></path><path id="path3" d="M166.192 97.981 C 166.192 98.657,166.264 98.933,166.353 98.595 C 166.441 98.257,166.441 97.704,166.353 97.366 C 166.264 97.028,166.192 97.305,166.192 97.981 M80.239 142.932 C 80.239 162.730,80.282 170.830,80.334 160.931 C 80.385 151.032,80.385 134.833,80.334 124.934 C 80.282 115.035,80.239 123.134,80.239 142.932 M232.566 205.092 C 232.566 205.768,232.638 206.045,232.727 205.707 C 232.815 205.369,232.815 204.816,232.727 204.478 C 232.638 204.140,232.566 204.416,232.566 205.092 M233.005 253.029 C 233.005 272.151,233.047 279.922,233.099 270.298 C 233.151 260.674,233.151 245.029,233.099 235.531 C 233.047 226.033,233.005 233.907,233.005 253.029 " stroke="none" fill="#d4947c" fill-rule="evenodd"></path><path id="path4" d="M98.771 17.801 C 99.109 17.890,99.662 17.890,100.000 17.801 C 100.338 17.713,100.061 17.641,99.385 17.641 C 98.709 17.641,98.433 17.713,98.771 17.801 M295.083 17.801 C 295.421 17.890,295.975 17.890,296.313 17.801 C 296.651 17.713,296.374 17.641,295.698 17.641 C 295.022 17.641,294.745 17.713,295.083 17.801 M300.702 17.801 C 301.040 17.890,301.594 17.890,301.932 17.801 C 302.270 17.713,301.993 17.641,301.317 17.641 C 300.641 17.641,300.364 17.713,300.702 17.801 M327.970 23.210 C 328.819 23.587,329.577 23.833,329.653 23.756 C 329.805 23.604,327.099 22.460,326.683 22.501 C 326.542 22.514,327.121 22.834,327.970 23.210 M43.011 42.230 L 40.562 44.776 43.108 42.327 C 45.473 40.053,45.814 39.684,45.557 39.684 C 45.503 39.684,44.358 40.830,43.011 42.230 M356.629 41.440 C 357.580 42.406,358.437 43.196,358.534 43.196 C 358.630 43.196,357.931 42.406,356.980 41.440 C 356.029 40.474,355.171 39.684,355.075 39.684 C 354.978 39.684,355.677 40.474,356.629 41.440 M65.584 57.858 C 71.040 57.912,79.969 57.912,85.426 57.858 C 90.882 57.803,86.418 57.759,75.505 57.759 C 64.592 57.759,60.127 57.803,65.584 57.858 M164.116 57.858 C 169.490 57.912,178.182 57.912,183.431 57.857 C 188.681 57.803,184.284 57.758,173.661 57.758 C 163.038 57.758,158.743 57.803,164.116 57.858 M193.324 118.349 C 193.324 151.668,193.365 165.299,193.415 148.639 C 193.466 131.980,193.466 104.719,193.415 88.060 C 193.365 71.400,193.324 85.031,193.324 118.349 M375.970 70.588 C 376.303 71.457,376.723 72.327,376.901 72.520 C 377.080 72.713,376.954 72.160,376.620 71.291 C 376.287 70.421,375.867 69.552,375.689 69.359 C 375.510 69.166,375.636 69.719,375.970 70.588 M166.467 81.191 C 166.478 82.073,167.153 82.799,167.159 81.935 C 167.162 81.511,167.006 81.068,166.813 80.948 C 166.620 80.829,166.464 80.938,166.467 81.191 M166.192 95.874 C 166.192 96.550,166.264 96.826,166.353 96.488 C 166.441 96.150,166.441 95.597,166.353 95.259 C 166.264 94.921,166.192 95.198,166.192 95.874 M80.175 105.356 C 80.175 106.418,80.241 106.853,80.322 106.321 C 80.402 105.790,80.402 104.921,80.322 104.390 C 80.241 103.859,80.175 104.293,80.175 105.356 M215.277 167.068 C 233.856 167.312,248.557 167.316,248.409 167.076 C 248.320 166.932,239.208 166.849,228.162 166.893 C 217.115 166.937,211.317 167.016,215.277 167.068 M326.426 167.075 L 345.915 167.170 346.006 227.571 L 346.096 287.972 346.095 227.480 L 346.093 166.989 326.514 166.984 L 306.936 166.980 326.426 167.075 M232.566 202.985 C 232.566 203.661,232.638 203.938,232.727 203.600 C 232.815 203.262,232.815 202.709,232.727 202.371 C 232.638 202.032,232.566 202.309,232.566 202.985 M232.956 215.803 C 232.957 217.349,233.019 217.937,233.093 217.111 C 233.168 216.285,233.167 215.021,233.091 214.302 C 233.016 213.582,232.955 214.258,232.956 215.803 M40.386 305.628 C 40.386 305.681,41.611 306.906,43.108 308.349 L 45.830 310.975 43.205 308.253 C 40.766 305.725,40.386 305.371,40.386 305.628 M356.969 308.780 L 354.873 310.975 357.068 308.878 C 358.275 307.726,359.263 306.738,359.263 306.684 C 359.263 306.424,358.916 306.741,356.969 308.780 M327.382 327.392 C 326.362 327.783,325.590 328.166,325.667 328.243 C 325.831 328.406,329.763 326.976,329.763 326.753 C 329.763 326.522,329.389 326.622,327.382 327.392 " stroke="none" fill="#ce8164" fill-rule="evenodd"></path></g></svg>